<svg id="gh-dark-mode-only" width="360" height="302" xmlns="http://www.w3.org/2000/svg">
<style>
svg {
  font-family: -apple-system, BlinkMacSystemFont, Segoe UI, Helvetica, Arial, sans-serif, Apple Color Emoji, Segoe UI Emoji;
  font-size: 14px;
  line-height: 21px;
}

#background {
  width: calc(100% - 10px);
  height: calc(100% - 10px);
  fill: white;
  stroke: rgb(225, 228, 232);
  stroke-width: 1px;
  rx: 6px;
  ry: 6px;
}

#gh-dark-mode-only:target #background {
  fill: #0d1117;
  stroke-width: 0.5px;
}

foreignObject {
  width: calc(100% - 10px - 32px);
  height: calc(100% - 10px - 24px);
}

h2 {
  margin-top: 0;
  margin-bottom: 0.75em;
  line-height: 24px;
  font-size: 16px;
  font-weight: 600;
  color: rgb(36, 41, 46);
  fill: rgb(36, 41, 46);
}

#gh-dark-mode-only:target h2 {
  color: #c9d1d9;
  fill: #c9d1d9;
}

ul {
  list-style: none;
  padding-left: 0;
  margin-top: 0;
  margin-bottom: 0;
}

li {
  display: flex;
  align-items: center;
  flex-wrap: nowrap;
  font-size: 12px;
  line-height: 18px;
  padding: 3px 0;
  transform: translateX(-200%);
  animation: slideIn 2s ease-in-out forwards;
}

@keyframes slideIn {
  to {
    transform: translateX(0);
  }
}

.repo-name {
  flex: 1 1 auto;
  min-width: 0;
  overflow: hidden;
  white-space: nowrap;
  text-overflow: ellipsis;
  font-weight: 600;
  color: rgb(3, 102, 214);
}

#gh-dark-mode-only:target .repo-name {
  color: #58a6ff;
}

.repo-stat {
  flex: 0 0 auto;
  display: inline-flex;
  align-items: center;
  justify-content: flex-end;
  width: 68px;
  color: rgb(88, 96, 105);
}

#gh-dark-mode-only:target .repo-stat {
  color: #8b949e;
}

.octicon {
  fill: rgb(88, 96, 105);
  margin-right: 0.5ch;
  flex: 0 0 auto;
}

#gh-dark-mode-only:target .octicon {
  fill: #8b949e;
}

.empty {
  font-size: 12px;
  color: rgb(88, 96, 105);
}
</style>
<g>
<rect x="5" y="5" id="background" />
<g>
<foreignObject x="21" y="17" width="318" height="268">
<div xmlns="http://www.w3.org/1999/xhtml" style="overflow: hidden;">

<h2>Top Repositories (By Views)</h2>

<ul>

<li style="animation-delay: 0ms;">
  <span class="repo-name">ParadauxIO/hibernia-economy</span>
  <span class="repo-stat"><svg class="octicon" xmlns="http://www.w3.org/2000/svg" viewBox="0 0 16 16" version="1.1" width="12" height="12"><path fill-rule="evenodd" d="M8 .25a.75.75 0 01.673.418l1.882 3.815 4.21.612a.75.75 0 01.416 1.279l-3.046 2.97.719 4.192a.75.75 0 01-1.088.791L8 12.347l-3.766 1.98a.75.75 0 01-1.088-.79l.72-4.194L.818 6.374a.75.75 0 01.416-1.28l4.21-.611L7.327.668A.75.75 0 018 .25zm0 2.445L6.615 5.5a.75.75 0 01-.564.41l-3.097.45 2.24 2.184a.75.75 0 01.216.664l-.528 3.084 2.769-1.456a.75.75 0 01.698 0l2.77 1.456-.53-3.084a.75.75 0 01.216-.664l2.24-2.183-3.096-.45a.75.75 0 01-.564-.41L8 2.694v.001z"></path></svg>4</span>
  <span class="repo-stat"><svg class="octicon" xmlns="http://www.w3.org/2000/svg" viewBox="0 0 16 16" version="1.1" width="12" height="12"><path fill-rule="evenodd" d="M1.679 7.932c.412-.621 1.242-1.75 2.366-2.717C5.175 4.242 6.527 3.5 8 3.5c1.473 0 2.824.742 3.955 1.715 1.124.967 1.954 2.096 2.366 2.717a.119.119 0 010 .136c-.412.621-1.242 1.75-2.366 2.717C10.825 11.758 9.473 12.5 8 12.5c-1.473 0-2.824-.742-3.955-1.715C2.92 9.818 2.09 8.69 1.679 8.068a.119.119 0 010-.136zM8 2c-1.981 0-3.67.992-4.933 2.078C1.797 5.169.88 6.423.43 7.1a1.619 1.619 0 000 1.798c.45.678 1.367 1.932 2.637 3.024C4.329 13.008 6.019 14 8 14c1.981 0 3.67-.992 4.933-2.078 1.27-1.091 2.187-2.345 2.637-3.023a1.619 1.619 0 000-1.798c-.45-.678-1.367-1.932-2.637-3.023C11.671 2.992 9.981 2 8 2zm0 8a2 2 0 100-4 2 2 0 000 4z"></path></svg>53</span>
</li>
<li style="animation-delay: 150ms;">
  <span class="repo-name">ParadauxIO/paradaux.io</span>
  <span class="repo-stat"><svg class="octicon" xmlns="http://www.w3.org/2000/svg" viewBox="0 0 16 16" version="1.1" width="12" height="12"><path fill-rule="evenodd" d="M8 .25a.75.75 0 01.673.418l1.882 3.815 4.21.612a.75.75 0 01.416 1.279l-3.046 2.97.719 4.192a.75.75 0 01-1.088.791L8 12.347l-3.766 1.98a.75.75 0 01-1.088-.79l.72-4.194L.818 6.374a.75.75 0 01.416-1.28l4.21-.611L7.327.668A.75.75 0 018 .25zm0 2.445L6.615 5.5a.75.75 0 01-.564.41l-3.097.45 2.24 2.184a.75.75 0 01.216.664l-.528 3.084 2.769-1.456a.75.75 0 01.698 0l2.77 1.456-.53-3.084a.75.75 0 01.216-.664l2.24-2.183-3.096-.45a.75.75 0 01-.564-.41L8 2.694v.001z"></path></svg>1</span>
  <span class="repo-stat"><svg class="octicon" xmlns="http://www.w3.org/2000/svg" viewBox="0 0 16 16" version="1.1" width="12" height="12"><path fill-rule="evenodd" d="M1.679 7.932c.412-.621 1.242-1.75 2.366-2.717C5.175 4.242 6.527 3.5 8 3.5c1.473 0 2.824.742 3.955 1.715 1.124.967 1.954 2.096 2.366 2.717a.119.119 0 010 .136c-.412.621-1.242 1.75-2.366 2.717C10.825 11.758 9.473 12.5 8 12.5c-1.473 0-2.824-.742-3.955-1.715C2.92 9.818 2.09 8.69 1.679 8.068a.119.119 0 010-.136zM8 2c-1.981 0-3.67.992-4.933 2.078C1.797 5.169.88 6.423.43 7.1a1.619 1.619 0 000 1.798c.45.678 1.367 1.932 2.637 3.024C4.329 13.008 6.019 14 8 14c1.981 0 3.67-.992 4.933-2.078 1.27-1.091 2.187-2.345 2.637-3.023a1.619 1.619 0 000-1.798c-.45-.678-1.367-1.932-2.637-3.023C11.671 2.992 9.981 2 8 2zm0 8a2 2 0 100-4 2 2 0 000 4z"></path></svg>2</span>
</li>
<li style="animation-delay: 300ms;">
  <span class="repo-name">ParadauxIO/MarkovMegaHal</span>
  <span class="repo-stat"><svg class="octicon" xmlns="http://www.w3.org/2000/svg" viewBox="0 0 16 16" version="1.1" width="12" height="12"><path fill-rule="evenodd" d="M8 .25a.75.75 0 01.673.418l1.882 3.815 4.21.612a.75.75 0 01.416 1.279l-3.046 2.97.719 4.192a.75.75 0 01-1.088.791L8 12.347l-3.766 1.98a.75.75 0 01-1.088-.79l.72-4.194L.818 6.374a.75.75 0 01.416-1.28l4.21-.611L7.327.668A.75.75 0 018 .25zm0 2.445L6.615 5.5a.75.75 0 01-.564.41l-3.097.45 2.24 2.184a.75.75 0 01.216.664l-.528 3.084 2.769-1.456a.75.75 0 01.698 0l2.77 1.456-.53-3.084a.75.75 0 01.216-.664l2.24-2.183-3.096-.45a.75.75 0 01-.564-.41L8 2.694v.001z"></path></svg>3</span>
  <span class="repo-stat"><svg class="octicon" xmlns="http://www.w3.org/2000/svg" viewBox="0 0 16 16" version="1.1" width="12" height="12"><path fill-rule="evenodd" d="M1.679 7.932c.412-.621 1.242-1.75 2.366-2.717C5.175 4.242 6.527 3.5 8 3.5c1.473 0 2.824.742 3.955 1.715 1.124.967 1.954 2.096 2.366 2.717a.119.119 0 010 .136c-.412.621-1.242 1.75-2.366 2.717C10.825 11.758 9.473 12.5 8 12.5c-1.473 0-2.824-.742-3.955-1.715C2.92 9.818 2.09 8.69 1.679 8.068a.119.119 0 010-.136zM8 2c-1.981 0-3.67.992-4.933 2.078C1.797 5.169.88 6.423.43 7.1a1.619 1.619 0 000 1.798c.45.678 1.367 1.932 2.637 3.024C4.329 13.008 6.019 14 8 14c1.981 0 3.67-.992 4.933-2.078 1.27-1.091 2.187-2.345 2.637-3.023a1.619 1.619 0 000-1.798c-.45-.678-1.367-1.932-2.637-3.023C11.671 2.992 9.981 2 8 2zm0 8a2 2 0 100-4 2 2 0 000 4z"></path></svg>1</span>
</li>
<li style="animation-delay: 450ms;">
  <span class="repo-name">ParadauxIO/hibernia-framework</span>
  <span class="repo-stat"><svg class="octicon" xmlns="http://www.w3.org/2000/svg" viewBox="0 0 16 16" version="1.1" width="12" height="12"><path fill-rule="evenodd" d="M8 .25a.75.75 0 01.673.418l1.882 3.815 4.21.612a.75.75 0 01.416 1.279l-3.046 2.97.719 4.192a.75.75 0 01-1.088.791L8 12.347l-3.766 1.98a.75.75 0 01-1.088-.79l.72-4.194L.818 6.374a.75.75 0 01.416-1.28l4.21-.611L7.327.668A.75.75 0 018 .25zm0 2.445L6.615 5.5a.75.75 0 01-.564.41l-3.097.45 2.24 2.184a.75.75 0 01.216.664l-.528 3.084 2.769-1.456a.75.75 0 01.698 0l2.77 1.456-.53-3.084a.75.75 0 01.216-.664l2.24-2.183-3.096-.45a.75.75 0 01-.564-.41L8 2.694v.001z"></path></svg>0</span>
  <span class="repo-stat"><svg class="octicon" xmlns="http://www.w3.org/2000/svg" viewBox="0 0 16 16" version="1.1" width="12" height="12"><path fill-rule="evenodd" d="M1.679 7.932c.412-.621 1.242-1.75 2.366-2.717C5.175 4.242 6.527 3.5 8 3.5c1.473 0 2.824.742 3.955 1.715 1.124.967 1.954 2.096 2.366 2.717a.119.119 0 010 .136c-.412.621-1.242 1.75-2.366 2.717C10.825 11.758 9.473 12.5 8 12.5c-1.473 0-2.824-.742-3.955-1.715C2.92 9.818 2.09 8.69 1.679 8.068a.119.119 0 010-.136zM8 2c-1.981 0-3.67.992-4.933 2.078C1.797 5.169.88 6.423.43 7.1a1.619 1.619 0 000 1.798c.45.678 1.367 1.932 2.637 3.024C4.329 13.008 6.019 14 8 14c1.981 0 3.67-.992 4.933-2.078 1.27-1.091 2.187-2.345 2.637-3.023a1.619 1.619 0 000-1.798c-.45-.678-1.367-1.932-2.637-3.023C11.671 2.992 9.981 2 8 2zm0 8a2 2 0 100-4 2 2 0 000 4z"></path></svg>1</span>
</li>
<li style="animation-delay: 600ms;">
  <span class="repo-name">ParadauxIO/TreasuryChestShop</span>
  <span class="repo-stat"><svg class="octicon" xmlns="http://www.w3.org/2000/svg" viewBox="0 0 16 16" version="1.1" width="12" height="12"><path fill-rule="evenodd" d="M8 .25a.75.75 0 01.673.418l1.882 3.815 4.21.612a.75.75 0 01.416 1.279l-3.046 2.97.719 4.192a.75.75 0 01-1.088.791L8 12.347l-3.766 1.98a.75.75 0 01-1.088-.79l.72-4.194L.818 6.374a.75.75 0 01.416-1.28l4.21-.611L7.327.668A.75.75 0 018 .25zm0 2.445L6.615 5.5a.75.75 0 01-.564.41l-3.097.45 2.24 2.184a.75.75 0 01.216.664l-.528 3.084 2.769-1.456a.75.75 0 01.698 0l2.77 1.456-.53-3.084a.75.75 0 01.216-.664l2.24-2.183-3.096-.45a.75.75 0 01-.564-.41L8 2.694v.001z"></path></svg>0</span>
  <span class="repo-stat"><svg class="octicon" xmlns="http://www.w3.org/2000/svg" viewBox="0 0 16 16" version="1.1" width="12" height="12"><path fill-rule="evenodd" d="M1.679 7.932c.412-.621 1.242-1.75 2.366-2.717C5.175 4.242 6.527 3.5 8 3.5c1.473 0 2.824.742 3.955 1.715 1.124.967 1.954 2.096 2.366 2.717a.119.119 0 010 .136c-.412.621-1.242 1.75-2.366 2.717C10.825 11.758 9.473 12.5 8 12.5c-1.473 0-2.824-.742-3.955-1.715C2.92 9.818 2.09 8.69 1.679 8.068a.119.119 0 010-.136zM8 2c-1.981 0-3.67.992-4.933 2.078C1.797 5.169.88 6.423.43 7.1a1.619 1.619 0 000 1.798c.45.678 1.367 1.932 2.637 3.024C4.329 13.008 6.019 14 8 14c1.981 0 3.67-.992 4.933-2.078 1.27-1.091 2.187-2.345 2.637-3.023a1.619 1.619 0 000-1.798c-.45-.678-1.367-1.932-2.637-3.023C11.671 2.992 9.981 2 8 2zm0 8a2 2 0 100-4 2 2 0 000 4z"></path></svg>1</span>
</li>
<li style="animation-delay: 750ms;">
  <span class="repo-name">ParadauxIO/cans.ie</span>
  <span class="repo-stat"><svg class="octicon" xmlns="http://www.w3.org/2000/svg" viewBox="0 0 16 16" version="1.1" width="12" height="12"><path fill-rule="evenodd" d="M8 .25a.75.75 0 01.673.418l1.882 3.815 4.21.612a.75.75 0 01.416 1.279l-3.046 2.97.719 4.192a.75.75 0 01-1.088.791L8 12.347l-3.766 1.98a.75.75 0 01-1.088-.79l.72-4.194L.818 6.374a.75.75 0 01.416-1.28l4.21-.611L7.327.668A.75.75 0 018 .25zm0 2.445L6.615 5.5a.75.75 0 01-.564.41l-3.097.45 2.24 2.184a.75.75 0 01.216.664l-.528 3.084 2.769-1.456a.75.75 0 01.698 0l2.77 1.456-.53-3.084a.75.75 0 01.216-.664l2.24-2.183-3.096-.45a.75.75 0 01-.564-.41L8 2.694v.001z"></path></svg>0</span>
  <span class="repo-stat"><svg class="octicon" xmlns="http://www.w3.org/2000/svg" viewBox="0 0 16 16" version="1.1" width="12" height="12"><path fill-rule="evenodd" d="M1.679 7.932c.412-.621 1.242-1.75 2.366-2.717C5.175 4.242 6.527 3.5 8 3.5c1.473 0 2.824.742 3.955 1.715 1.124.967 1.954 2.096 2.366 2.717a.119.119 0 010 .136c-.412.621-1.242 1.75-2.366 2.717C10.825 11.758 9.473 12.5 8 12.5c-1.473 0-2.824-.742-3.955-1.715C2.92 9.818 2.09 8.69 1.679 8.068a.119.119 0 010-.136zM8 2c-1.981 0-3.67.992-4.933 2.078C1.797 5.169.88 6.423.43 7.1a1.619 1.619 0 000 1.798c.45.678 1.367 1.932 2.637 3.024C4.329 13.008 6.019 14 8 14c1.981 0 3.67-.992 4.933-2.078 1.27-1.091 2.187-2.345 2.637-3.023a1.619 1.619 0 000-1.798c-.45-.678-1.367-1.932-2.637-3.023C11.671 2.992 9.981 2 8 2zm0 8a2 2 0 100-4 2 2 0 000 4z"></path></svg>1</span>
</li>
<li style="animation-delay: 900ms;">
  <span class="repo-name">ParadauxIO/paradaux.io-bulma-old</span>
  <span class="repo-stat"><svg class="octicon" xmlns="http://www.w3.org/2000/svg" viewBox="0 0 16 16" version="1.1" width="12" height="12"><path fill-rule="evenodd" d="M8 .25a.75.75 0 01.673.418l1.882 3.815 4.21.612a.75.75 0 01.416 1.279l-3.046 2.97.719 4.192a.75.75 0 01-1.088.791L8 12.347l-3.766 1.98a.75.75 0 01-1.088-.79l.72-4.194L.818 6.374a.75.75 0 01.416-1.28l4.21-.611L7.327.668A.75.75 0 018 .25zm0 2.445L6.615 5.5a.75.75 0 01-.564.41l-3.097.45 2.24 2.184a.75.75 0 01.216.664l-.528 3.084 2.769-1.456a.75.75 0 01.698 0l2.77 1.456-.53-3.084a.75.75 0 01.216-.664l2.24-2.183-3.096-.45a.75.75 0 01-.564-.41L8 2.694v.001z"></path></svg>0</span>
  <span class="repo-stat"><svg class="octicon" xmlns="http://www.w3.org/2000/svg" viewBox="0 0 16 16" version="1.1" width="12" height="12"><path fill-rule="evenodd" d="M1.679 7.932c.412-.621 1.242-1.75 2.366-2.717C5.175 4.242 6.527 3.5 8 3.5c1.473 0 2.824.742 3.955 1.715 1.124.967 1.954 2.096 2.366 2.717a.119.119 0 010 .136c-.412.621-1.242 1.75-2.366 2.717C10.825 11.758 9.473 12.5 8 12.5c-1.473 0-2.824-.742-3.955-1.715C2.92 9.818 2.09 8.69 1.679 8.068a.119.119 0 010-.136zM8 2c-1.981 0-3.67.992-4.933 2.078C1.797 5.169.88 6.423.43 7.1a1.619 1.619 0 000 1.798c.45.678 1.367 1.932 2.637 3.024C4.329 13.008 6.019 14 8 14c1.981 0 3.67-.992 4.933-2.078 1.27-1.091 2.187-2.345 2.637-3.023a1.619 1.619 0 000-1.798c-.45-.678-1.367-1.932-2.637-3.023C11.671 2.992 9.981 2 8 2zm0 8a2 2 0 100-4 2 2 0 000 4z"></path></svg>1</span>
</li>
<li style="animation-delay: 1050ms;">
  <span class="repo-name">SpongePowered/SpongeDocs</span>
  <span class="repo-stat"><svg class="octicon" xmlns="http://www.w3.org/2000/svg" viewBox="0 0 16 16" version="1.1" width="12" height="12"><path fill-rule="evenodd" d="M8 .25a.75.75 0 01.673.418l1.882 3.815 4.21.612a.75.75 0 01.416 1.279l-3.046 2.97.719 4.192a.75.75 0 01-1.088.791L8 12.347l-3.766 1.98a.75.75 0 01-1.088-.79l.72-4.194L.818 6.374a.75.75 0 01.416-1.28l4.21-.611L7.327.668A.75.75 0 018 .25zm0 2.445L6.615 5.5a.75.75 0 01-.564.41l-3.097.45 2.24 2.184a.75.75 0 01.216.664l-.528 3.084 2.769-1.456a.75.75 0 01.698 0l2.77 1.456-.53-3.084a.75.75 0 01.216-.664l2.24-2.183-3.096-.45a.75.75 0 01-.564-.41L8 2.694v.001z"></path></svg>113</span>
  <span class="repo-stat"><svg class="octicon" xmlns="http://www.w3.org/2000/svg" viewBox="0 0 16 16" version="1.1" width="12" height="12"><path fill-rule="evenodd" d="M1.679 7.932c.412-.621 1.242-1.75 2.366-2.717C5.175 4.242 6.527 3.5 8 3.5c1.473 0 2.824.742 3.955 1.715 1.124.967 1.954 2.096 2.366 2.717a.119.119 0 010 .136c-.412.621-1.242 1.75-2.366 2.717C10.825 11.758 9.473 12.5 8 12.5c-1.473 0-2.824-.742-3.955-1.715C2.92 9.818 2.09 8.69 1.679 8.068a.119.119 0 010-.136zM8 2c-1.981 0-3.67.992-4.933 2.078C1.797 5.169.88 6.423.43 7.1a1.619 1.619 0 000 1.798c.45.678 1.367 1.932 2.637 3.024C4.329 13.008 6.019 14 8 14c1.981 0 3.67-.992 4.933-2.078 1.27-1.091 2.187-2.345 2.637-3.023a1.619 1.619 0 000-1.798c-.45-.678-1.367-1.932-2.637-3.023C11.671 2.992 9.981 2 8 2zm0 8a2 2 0 100-4 2 2 0 000 4z"></path></svg>0</span>
</li>


</ul>

</div>
</foreignObject>
</g>
</g>
</svg>
